<svg width="62" height="50" viewBox="0 0 62 50" fill="none" xmlns="http://www.w3.org/2000/svg">
<rect width="50" height="50" rx="15" fill="#7752BE"/>
<path d="M60.1161 26.5982C60.3006 26.7768 60.3423 26.9821 60.2411 27.2143C60.1399 27.4524 59.9643 27.5714 59.7143 27.5714H56.3036L58.0982 31.8214C58.1577 31.9702 58.1577 32.1161 58.0982 32.2589C58.0387 32.4018 57.9375 32.506 57.7946 32.5714L56.2143 33.2411C56.0655 33.3006 55.9196 33.3006 55.7768 33.2411C55.6339 33.1815 55.5298 33.0804 55.4643 32.9375L53.7589 28.9018L50.9732 31.6875C50.8601 31.8006 50.7262 31.8571 50.5714 31.8571C50.5 31.8571 50.4286 31.8423 50.3571 31.8125C50.119 31.7113 50 31.5357 50 31.2857V17.8571C50 17.6071 50.119 17.4315 50.3571 17.3304C50.4286 17.3006 50.5 17.2857 50.5714 17.2857C50.7321 17.2857 50.8661 17.3423 50.9732 17.4554L60.1161 26.5982Z" fill="white"/>
</svg>
